<svg xmlns="http://www.w3.org/2000/svg" width="256" height="96" fill="none" viewBox="0 0 256 96"><g fill="#cacaca"><circle cx="202" cy="47" r="30"><animate attributeName="cx" dur="20s" repeatCount="indefinite" values="201;203;201"/></circle><ellipse cx="160" cy="56" rx="48" ry="34"><animate attributeName="cy" dur="15s" repeatCount="indefinite" values="57;53;57"/></ellipse><ellipse cx="154" cy="36" rx="50" ry="34"><animateMotion dur="11s" path="M0 0v-1h2v2h-3z" repeatCount="indefinite"/></ellipse><ellipse cx="102" cy="43" rx="48" ry="34"><animate attributeName="cy" dur="17s" repeatCount="indefinite" values="45;41;45"/></ellipse><ellipse cx="94" cy="60" rx="44" ry="34"><animateMotion dur="13s" path="M0 0h2v2h-2z" repeatCount="indefinite"/></ellipse><circle cx="54" cy="49" r="30"><animate attributeName="cx" dur="20s" repeatCount="indefinite" values="55;53;55"/></circle></g><g fill="#fff"><circle cx="202" cy="47" r="28"><animate attributeName="cx" dur="20s" repeatCount="indefinite" values="201;203;201"/></circle><ellipse cx="160" cy="56" rx="46" ry="32"><animate attributeName="cy" dur="15s" repeatCount="indefinite" values="57;53;57"/></ellipse><ellipse cx="154" cy="36" rx="48" ry="32"><animateMotion dur="11s" path="M0 0v-1h2v2h-3z" repeatCount="indefinite"/></ellipse><ellipse cx="102" cy="43" rx="46" ry="32"><animate attributeName="cy" dur="17s" repeatCount="indefinite" values="45;41;45"/></ellipse><ellipse cx="94" cy="60" rx="42" ry="32"><animateMotion dur="13s" path="M0 0h2v2h-2z" repeatCount="indefinite"/></ellipse><circle cx="54" cy="49" r="28"><animate attributeName="cx" dur="20s" repeatCount="indefinite" values="55;53;55"/></circle></g><path stroke="#979797" stroke-linecap="round" stroke-width="2" d="m14 41-7 7M14 55l-7-7"><animateMotion dur="1.5s" path="M0 0h2z" repeatCount="indefinite"/></path><path stroke="#979797" stroke-linecap="round" stroke-width="2" d="m242 41 7 7M242 55l7-7"><animateMotion dur="1.5s" path="M0 0h-2z" repeatCount="indefinite"/></path></svg>